<?xml version="1.0" encoding="UTF-8"?>
<svg version="1.1" viewBox="0 0 2048 303" width="1280" height="1280" xmlns="http://www.w3.org/2000/svg">
<path transform="translate(2013,28)" d="m0 0 6 1 1 5-2 8 2 3h2l2-6 5 1 3-1 1 6 4-2h9v6l-2 1-2 5-2 4h6l1 7v237h-2046v-241l5 1v2l3-1 4-5h10l4-1 3 1v6h9l1 1v5l-3 1v5l-4 1 1 2 9 1 2 3 12 4 1 2h2l1-5 2-2 2-5 3-1v-2h2l2-4 3 2 4 7 2 4-5 1-5-1-2 1v5h12l4 2v2l5-2-1-4-1-5 3-2 4 1 1 5 4 3 4 1v-5h-2l2-8 1-3 3 1 1 5 2 1 1-6h15l3 2 1 5 6 2v2l5 1v9l-2 2-9 1-7 2-1 3h5l-2 5-9 2-4 4 5 1v2h4l1-3h2l2-5 3-3 2-5 1-1h8l4-2 3 1 1-4h7l1 3 3-1 1-4 3-1 1-3-9-1 2-6 4 1v-2h4l3 6 2 5-1 2 5-2h8v3l-8 4h-7l3 5v6l2 1v-5h4v2h3l-1-6 5-1 7 2 2 5 4 1 4 2v-5l5-7 5 1 1 1h5l1-2 6 2 5-5 9 2 3 1-1-6-4-2-4 1-1-1v-9l1-2-4-1v-3l3-3h-6l-2-3 9-1-1-2-7-2v-10l3-3 1-4h3l1 6v5h5l1-2h10l1 11 5 1v-2l-2-1 2-6-1-1v-8l-2-6-3-2v-2l4-1 5 3h4l1-2h9l4 3v3l-9-1v6l3 3 1 4 5 1 1-7 2-3 1-7 9-6v-2l-2-1v-3l7-2 11 1 5 2 2-4 2 1 1 4 5 1 1 10v3l-1 4-6 3h-6v2l7 2 3 6 3 1 2-4 1-10h4v2l3 1 1 5h2l3-3 5 2v2h6l-1 4h-5l-2 5-5 1 2 8-2 2 1 5 6 1 2-1 1-3h6l1-8 4-1 2 1 3 6 1 5 7 1-1 3-2 2 3 2v2l-2 1v5l6 1v-6h5l2 5 3 2v2h3v-2l6 1 1-5-3-3h8l1 4 3-1v-7l1-5 3 1 5 11 2 4 7-1h3l4-5h3l1 5 8-1 4-1v-4l-8-4v-7l-4-3 2-4 4-1h3l4-1h2l4-5 3-5 4-2 1 5v6l6 2v2l-4 3-6 1 2 5 2 1v2l-6 4-3 4v7l-5 3h-2l1 9 1 4-2 2v4l3-1 2-5 4-1 8 4-2 6-9 1-2 5h-2v3l3-3h4l-1 4h-2l2 4h9l1-5 11-1 6-3 1-5 3-1 3 3 2-3 13-1 8-3 1-2-9-1h-4l-1 1-7 1-2 5-4-2h-5l-4 1-4-2-1 5-5-1v-4l3-2-6-4 1-3 3-2-1-5-10-5 2-4 6-1 3 3 10-1 3-1 1-3h-6l-5-4-3-2 1-4 4-3 1-5 4 1 6 3 3 4h7l1 1v5h-6v6l5-1 4-3 1 1 10 1 1 5 6 3 3 6 5 2h13v-5l-3-3v-3l7 1 1-3 6-2 2-3 4 1 4 5 2 5 3 3-2 6-5 1 5 6 4 1 5-3 3-6v-4l-7-1v-2l5-5v-5h4l2 3 2 7 2 1 2-7 9 1 7-3 6 1 2-4 4 3h6l2 1-1 5-5-1-1 5-5 1-2-3 4-3h-4-4v14h14v-8h7l3 3-1 3h-4l1 2 5-1 4-5h3l2 6 4-3v-2l-6-2v-5l-4-2-2-3 5-5 3 3h2v-2l6-1 1-3 6-4h3l1 6-1 4 6 1 4-1 1-8 4-4 5-1 1-2-4-2-1-4 3-4h5l4 5-1 5-2 5 5-3 1-14h4l1 12h8l2-9-4-1-1-1v-5h4l1 2 9 1 1 5 3 3v5l5-1v-5l-3-5v-2l5-3 4-1 7 1 3 2 6 2v2h9l1 3 3-1 1-2h5l1 1v5l-5 1 2 5h4l-1-5 3-2 3-5 6-2-1-3 6-2 6 2 2-2 6 1 1 2 6 2v14l-4 4h4v-3h8l-2 6h4v-3h3v6l-3 1 2 2 3-3h2l-2-9h12l2-6v-6l11 2h4v-7l1-1 13-1v3l-2 5-11 4-4 5-2 5-11 1 5 4 2 7-4 1v3h6l1-3 2-2-3-3 1-6 3 1v3l3 1 3 3h7v-4-7l2-2 4-1 2-3h4l5 5 5 1 5-5 8-6 5-1 2 3v3l-9 6-3 4h-6l-1 4-4-1-2 7-8 1v1l8 1 2 3v6l7-1-2-6-2-3 1-7 8-2 4 8 9-1 1 6 9-2-2-2h-3l-5-6v-2l-9 1-2-3 5-2 13 1h3v-3l4 1 4 4 1 3 5 2h3l5-5v-2l-2-1 1-3 7-2 1-1 9-1 3-2h4l1 2h2l2-4 4-1 4 2 3-3h10l5 5-1 5-1 1v5l5 3 1 3-1 2-7-1 1 2h6l1 2 3 1v-5l6-1-1-2-3-1 1-5-3-1v-3l6-1 1-5 4-1h11l1-1v-8l1-3 4 1 1 5-1 3v6l5 2 2-6 5-1-1 5 8 1 1 3h3l2-4 3-3h2l1-3 9-3v-2l4 1 1 9 3 1 12 1 1 3h9l1 3 3 1 2 5h3l2-5 3-3-10-1-2-2 3-4 5 2 1-5-6-1-3 1-3 5-1 1h-7l-1-11-2-5 4-4 3 2 1 7 4 1 3-2 5 1 6-4 2-3 5 2-2 4-4 4v7l7 1 2-1 1-5h3l2 6-1 8 4 1h2l-3-5 3-2v-5l2-2v-4l-8-1v-4h5l1-2 4-1 3 2 2 5 5 4v6l4 2 10 1v-3l-7 1-6-9-2-4v-4l16-1 5 1v5l-6-1 4 7 2 2 1 5 3 3-1 4-2 1v2l8-4 4 3 4 1 4 3h2l3-3v-8l-6-2v-2l-3-1 1-3h2l-4-5-5 2h-5l1-7 2-4v-6l-5 1 1-3 7-7h5l1 4-4 9v3h14l3 1 1 6h5l1 1v6l3 1 2 7-1 7h3v-5l7-2 2-8v-2l6-1v2l6 1 3 5 9-1 2-2 5 1 1 3 4 2-4-7-8-4-9-1-6-3-3-8 3-2h3l6 8h3l2-5 1-3-7-3 2-4h2l2-10v-5h7l6-2 3-3 5 2 2 1-1 6-5 3v4l4 2-2 8 7-1-1-4-3-3h7v-2l5-5 5 1-1 5-2 4-1 6 6 1v3l-2 2 3 2v2l4 2 1 4 5-1 1-4 3 1 1 4h5l4 3 4 2-1 3-9 1-3-1 2 4 12-1 3-8 3 2 1 7 2 1-1-5 2-5 5-5v-7l4-1 1 3v6l3 5 6-1 4 2-5 6-1 5 5-2 6 2-1-6 3-1v-7l4-2 4 1 3 5v2l8-4 4 1v2l3 1v2l-6 1 1 5h2l2-3 3 1-1 5 3-2h6l8 4v5l-2 3 6-1 1-5-3-4 2-4 3-5 5-1h4l2-5 17-1 3 6v2h2l1 4 3-1v-8l3-4v-3l12-3-2-4 2-2 1-4h3l1-7 1-1h9l4 3-1 4-6 5-5 2-2 5 1 9 2 1 2-4h2l-1-5 5-1 1-2 4 1 1 7-1 3 5-1 2 1v-13l-3-2 1-4 2-5 4 1v7l5-2 4 1 5 7h7v-1l-7-2-1-4 3-3h5l1-4h3l1 5-2 7v5l5 1 8 1 4-1-1 7-3 1-1 2 5-1 2 2h6 3l4-4 8-1 3-5 11-1-2-6-7 2-5 4-1-3 1-9-2-1 1-5 4-1 1 3v3l11 1h4l1 6 4-1v-3l7-3 5-2 5-1 1-2-12-1h-4l-3 1-1-4 2-4 7 2 5 2 4-2 5 1 1 1 7 1 3 7-1 5 5-1v-8l1-1h9l6-1v-3l-4 1-2-5-3 2h-5l-2-2 1-5 6 3v-2l4 1v2h5l1 4 9-2 2 3v9l4 4 8 1-1 4-1 2h6l1 5h3l2-4 8-1-1-5 4-4h-5l-4-5-7-1v2l5 3 2 4h-7l-1-1v-5h-9l-5-5 1-3 3-2 4 1v2l11-1 5-2h5l2 7 1 6 4 2 4 3 5 1h7v-3h3v3l-2 1-1 8-3 1 1 3 5 2 1-11 5-1 8 4v3h3l3-6-1-2-12-6-1-5 1-2h3l4 6 7 3 3 3 1 8 3 3 5 2v3l-5 3 1 7 5 5 1 3 5 2h4l2-4 8-2 1-5 2-1v-5l-2-1-1 6-8 3-2 5-5-3-2-3-6-1v-3l6-2 7 1v-2l-3-1-2-4 1-5 2-6 1-4h7l-2-6-4-2 1-4h3l1 5h8l4-5-2-3 2-1 4 2h3l3-5 5-2-1-4 4-1 2 4 3 2-1 3 6 2 2 5 4-1 3-11-11-1 2-5-3-1v-3l7-2 1-1h5l-2 6 2 2 1 4 3 1 1-4h9v-2l4 1 2 2 4-2-2-4 1-1h5l1 3-1 3 3-2h3l4 6 3 1v-4l-3-1 2-4 4-2 1 5h4v-4l4 1-2 4h6l8 7v3l-7 2-4 4h6l4-3h4l1-3h3l-1 6 4-1 2-2h5l-1 4h-2v5l3 1 1-4h5l6-6h17l1 3-6 1v2l-6-1-7 6-1 2 6 1 2-4 3 1v2h5v3l-1 4 5 4 1-4h-2v-3l4-2 3-5 3-4h2l1-7 5-8 5 1v5l-3 1-1 8-5 1 2 5 3 1v-6l3-3 1-4h2l1-3h3v3h-3l3 5 10-1-3-5 2-5 3-2 5 1 2 9 7-1v-6l-8-4 1-4 4-2 2-3 5 1 8 3 2 5 6 1v3h6l-1-9 5-6 8 1 1 1 1 7 2 1 1-7 2-2-1-4-8-1-4 3-3-1 1-4 5-1 1-2 11 1 1 3 4-1 1-8 6-5h7zm-1719 8-1 1v5l4 5h2l1-4h6v9h4l3-5 3-1-1-4h-4l-4-5-5-1zm-8 10v3h3v-3zm1733 3-6 8-1 7 4 4 4-1-1-4v-10l4-2v-2zm-789 3 1 4h4l-1-4zm719 2-1 4h3l-1-4zm29-1-3 2v3h5l1-3zm-194 6-1 5 8 3 5 5h7l1-5h-3-3l-3-5-7-3zm254 0-1 2h2zm-1745 3-3 9h2l1-2 3-1v-6zm1658 0v6h3l1-5zm-1934 3-1 1v5l4-1-1-5zm310 0v9h3l2-5-2-4zm1430 0-4 4-1 5h-5l-3 6 5 3 2 5 6 2 3 2 5-1 2-3-1-7h-2l-1-3h-3l-2-6 2-2-1-5zm248 0v4l3 1 1-4zm32 0v3h2v-3zm-1774 1v2h2v-2zm971 0-2 4v3l8 1-2-7zm-927 2v4l1 2-5 1v3h6l4-3-1-4h-2l-1-3zm1662 0-1 4 4-1-1-3zm-1945 1 2 4 3 4h4v-5l-6-3zm260 2-2 2 1 5h5l1-1v-5zm-25 1-4 5v6l2 2 5-1-1-3h-2v-3l3-1v-5zm1765 0-1 2h2zm6 0 1 5h1v-5zm-1262 2-1 3 2 1 1 3h-6v4l4 3h5l2-10-2-3zm851 1v3h4v-3zm-377 1-7 3 1 3 5 1 5 2 1-1v-7zm-461 2-4 5 2 2 5-1 1-5zm1066 0v3l3 1 2-1v-3zm74 0-1 4h3v-4zm17 0v3l3 1 3-1v-3zm-806 1 2 2 1-2zm-686 1v2l-4 2v3l6 2 4-3-2-4zm1148 0-1 4 2 3-5 1-1 4 9 2 5-10-1-3zm-1266 1-3 6h-11v4h15l2-6-1-4zm391 0 1 4 3-1-1-3zm853 1 2 2v-2zm-1456 2v4h4l-1-4zm184 0v4l5 3v-4l-2-3zm747 0v3h3l-1-3zm748 0-1 1v5l3 1 1-5zm13 0v4l3-1-1-3zm-37 1v2h2v-2zm133 0v2h2v-2zm-1078 1v4h3l-2-4zm1088 0m-1882 1-2 1v3h5l1-3zm219 0-3 3 1 5 3-1 3-4-1-3zm1012-4-2 4v3l-7-3h-7l-2 6 1 1 18 1 2-3-1-8zm395 4v4l2 1 4-1-1-4zm-1549 1v2h2v-2zm132 0 1 3 2-1v-2zm520 0v2l2-1zm21 0 1 2zm181 0-1 5 5 1v-4zm211 0v2l9 1v-3zm381 0v3l5-1v-2zm174 0-3 3v5l4 4h6v-8l-1-2h-2v-2zm187 0-9 8v4l4 1 2-1 1-5 6-2-1-5zm-437 1-3 3v2l6-1v-4zm-797 1-3 3 2 2 4-1v-4zm953 0-2 3 4 1-1-4zm-1515 1-4 4v2l5-1 1-3zm145 0v3l4-1-1-2zm22 0 1 3 3 1v-4zm411-1-3 3 1 1h5l1-3zm346 1v3h8v-3zm227 0 1 3 3-2zm234 0m180 0v6h3v-6zm-252 1v3l2 1-1-4zm-1085 1v4l5 3 1-1v-5l-1-1zm375 0v4l4 1 2-1-1-4zm-644 1-5 5 1 4 3 1 4-2-1-7zm224 0-1 3 7 1 1-3-1-1zm168 0v3l11-1-1-2zm341 0v3h3v-3zm123 0-2 2-5 2v2l8 1 1-1v-6zm64 0-3 3v6l2 1 7-4-1-5zm320 0-2 1 1 4 4-4zm217 0 1 2zm10 0-1 3h3l-1-3zm33 0 1 9 5-1-1-4-2-4zm31 0-3 4v5l5 1 5-3v-3l-4-4zm86 0-1 3-3 1v5l3 1 1 3h2l4-5v-6l-2-2zm164 0-1 2 3-1zm34 0-1 3h-5l-2 2 1 4 4 1 2-4h6l1-4-1-2zm-1791 1m1395 0-1 1v6l3 1 1-8zm-1433 2v4l2-1v-3zm28 0-6 5-3 10h4l3-4 4-1v6l5-1 3-3-2-5-2-2-2-5zm579 0v4l5 3 1-1v-5l-1-1zm270 0v3l2 5-6-1-1 2 3 5 2 2h5l2-7 5-1v-5l-5-3zm13 0-1 3 4 1v3h3l-1-5-2-2zm68 0-4 6 4 1 3-3v-4zm190 0-1 3 4 1v-4zm9 0v4l5 1 3-3-2-2zm32 0-3 2 1 4h6l1-6zm192 0-1 3h4v-3zm19-1-6 3-5-1-1 1v5l6 4 2 5 5-3v-4l-2-1v-4l4-2-1-3zm75 1-2 3v5l2 1 5-3-1-4zm327 0v4h2l1 3h2l-1-6zm-1120 1v2h2v-2zm48 0v4h2v-4zm240-1-2 1 1 4 2-1zm496 1v2h3v-2zm97 0-2 2v3h6l1-3-1-2zm10 0m283 0v2h2v-2zm-433 1-1 5 3 1 1 4-6 1-3-2 2-3-4-1-3 2v4l2 1 3 5 9 1 4-2 2-4 2-1-1-3-5-2-2-6zm-1382 1v4l3-1-1-3zm1078 0 1 3 1-3zm50 0 1 3h2l-1-3zm178-1-6 2v3h7l2-1-1-4zm404 1v4l5-1v-2zm-1498 1 1 3h4v-3zm344 0 1 2zm303 0-1 5h-2v4h6l1-1-1-8zm383 0-1 5h3l2-5zm84 0-1 2-3 1-1 5 7-2 1 2-6 2-2 6-2 5-4 1 1 3h3l5-6 6-5 2-6 1-4-3-4zm36 0 1 5 4-1-2-4zm84 0 2 2v-2zm-307 1-1 3 1 2 3-1v-4zm151 0m-134 1-3 2 1 5 5-1-1-6zm-1023 1 1 2zm105 0v3h3v-3zm10 0-2 2-4 1v3h5l1-3h7v-3zm280 0-1 2-3 1 1 3 3 3h3l1-2 7-2-2-5zm72 0v3h3v-3zm416 0 1 4h2l-1-4zm396 0-1 4 4-1v-3zm42 0-1 3 1 5 2-3-1-5zm98 0v3l3-1v-2zm-648 1m201 0 1 5h5v-3zm178 0m26-2v3h-11l-7-1-5 2-1 8 1 4 5 1 3-2 6-2-1-5 7 2 5-5 1-4zm-1256 3-5 5v2l4 2h4l1-8zm238 0-5 3-8 1v4 5l4 2h3l2-5 10-6-2-4zm512 0-2 1-1 3-2 2 3 4v3l-6 3-1 4 2 2 12-7v-4l-2-1v-2l5-1-1-3-4-4zm602 0-4 3-6 2 5 5 2-2 7-2 2-4zm-1264 0-2 1v5l1 1h5v-6zm781 1v3l3-1-1-2zm84 0v3l3-1-1-2zm16 0v3h4v-3zm93 0v3h3v-3zm328 0v4l5-1 1-3zm195 0-4 4v3l4-1 2-2-1-4zm64 0-4 4v2l4-1v-2h3v-3zm35 0-4 3 1 4h2v2h3v-3h-2v-2l5-1v-3zm68 0-1 5h3l1-3 6 1v-3zm-1497 1v4l3 2-1 7 2 2h3l2 5 7 2 1 4 5-1v-4l-4-2-6-1v-9l-4-7zm235-1-2 2 2 1 2-2zm552 1-1 4h4l-1-4zm416 0 1 3 1-3zm-326 1-2 3h4l-1-3zm-633 1v3h3v-3zm103 0v3h2l-1-3zm75 0-1 3-7 2-6 5v6l8 4 5-1-1-3-5-2 1-4 13 1 1 3 6-1v-3l-7-4-2-6zm211 0 1 5 2-1-1-4zm101 0v3h4v-3zm84-1-5 3 1 4 3 5 5-1 3-1-2-9zm471 1-1 1v5h5l-1-5zm-912 1m17 0v2h3v-2zm-321 0-1 3-3-2h-6l1 5 6 4 7-1 2-4-3-5zm656 1-3 2 2 5-3 2v7h4l1-5 2-6v-5zm99 0 1 3 1-3zm119 0-4 5 1 3h8l1-5-4-3zm-508 1 1 4 5 2v-5l-1-1zm33 0v5l3 4 4-2-2-4-1-3zm34 0 1 4h4l-1-4zm414 0 1 4v-4zm-1297 1v2l5 4v-4h-2v-2zm540 0m644 0v3l4-1v-2zm31 0v2h2v-2zm100 0m211 0-4 3v2l3 1 3-2-1-4zm126 0v2h2v-2zm-1185 1-1 4 3-1v-3zm1349 0-1 4h3v-4zm-1502 1v3h3v-3zm236 0v3h2l-1-3zm225 0v4l3-1v-3zm401 0-2 1v6l4-2 2-4zm388 0-5 6 1 1h5l1-1v-5zm-1391 0-2 1v2l7 1-1-3zm39 1v2h2v-2zm31 0v2h2v-2zm654 0-1 2 1 3h3l1-4zm13 0v2l4 1 1 3 3-1-1-3-3-2zm381-4-2 5-8-1 1 4 6 5 5-7v-5zm381 4 1 5 4-4zm44 0 1 3h2v-3zm-1280 2-3 3 1 4h7v-3l-3-4zm943 0v4h3v-4zm72 0v4l2-1-1-3zm420 0v3zm-1377 1-4 8 2 5 5-2 1-2v-8zm42 0-4 4v2h6l1-5zm441 0-1 2h2zm354 0 1 4 3-3zm201 0v3h3v-3zm-695 1-1 3 3 7 2 1 4-3-2-4-3-4zm645 0 1 2zm238 0v5l4-1v-4zm-1610 1 1 4 4-1-3-3zm716 0v4h6v-3zm-685 1 1 2zm221-1-6 4 2 7-3 1 1 7 7-6 2-2v-3l-3-1v-2l3-2v-2zm120 0-5 3 1 4 6-1 1-5zm1201 1-1 3h3v-3zm-1454 1m273 0-2 4 4 1v-4zm48 1m817 0 1 3 8 7h3l-2-9h-6zm333 0-1 4h3v-4zm-31 2v2h2v-2zm-1457 2v4l3-1-1-3zm605 0-1 4h5l1-3zm-436 1-3 4 1 5 4-2 2-2-1-5zm478 0 1 2 3-1zm250 0-4 4 1 5 3-1 2-4 2-1v-3zm146 0-1 3 4-1v-2zm29 3-1 3 4-1-1-2zm351 0v3h2v-3zm-1566 3v3l2-1v-2zm389 0-2 3-11 1-5 3-1 4 3 2 5-1 4-5 9-2v-5zm65 0 1 3h4l-1-3zm1044 0-1 4 4 2 2-1-1-5zm-144 1 1 4 2-4zm17 0m-1040 2v4l2 1-1-5zm81 0-6 4 1 4 4 1 4-4-1-5zm917 0-1 4 5-1-1-3zm-149 1m182 0-1 5 4-1 1-4zm-1039 2-2 1 1 3 4-1-1-3zm102 0-5 1v2l11 1v-4zm261 1m557 0-2 1v5l5 2 1-1v-6zm424 0 2 4 1-4zm118 0m-1451 2v3h3l-1-3zm54 3 1 4 2-1v-3zm-383 1v2l4-1zm349 0 1 5 4-3v-2zm45 0-4 4 1 3 4-1 1-1v-5zm238 0 1 3h2v-3zm-306 1-4 3v2l3 2 2 3 8-4 1-4-1-2-6 2zm874 2-1 3 3-1zm361 0 1 2 3-1zm-1558 3-1 3 4-1v-2zm708 1m495 0 1 2h2v-2zm-844 3 1 4 1-4zm377 0m-400 6v3l5 2-1-5zm157 1m-74 1v4l4-1v-3zm-54 2v2l3-1zm-28 6 1 4 3 3v-7zm-8 13 2 2v-2z" fill="#E2B898"/>
<path transform="translate(454,66)" d="m0 0 3 1v10l6 2v2l-4 3-6 1 2 5 2 1v2l-6 4-3 4v7l-5 3h-2l1 9 1 4-2 2v5l-4 1-3-4-8-1-1-1v-9l-3-5v-2l-8-1-2 2-2-9 2 1v2l7-1h3l4-5h3l1 5 8-1 4-1v-4l-8-4v-7l-4-3 2-4 4-1h3l4-1h2l4-5 3-5zm-8 14v2l-4 2v3l6 2 4-3-2-4z" fill="#E3BC9E"/>
<path transform="translate(1175,38)" d="m0 0h5l5 2 7-2-1 8-1 5-6 2 3 4v2l8-1 1-4 9-7h2l1 7 9-1 4 3v5l-10 6h-6l-3-3 1-3h2l-2-5h-3v2l-4 1-2 5v4l-5-1-5-2-4-1-3 6-3-1v-11l4-6 5-3v-4l-6 2-3-4z" fill="#EEDCCC"/>
<path transform="translate(1242,44)" d="m0 0 5 2 2 1-1 6-5 3v4l4 2-2 8 4 1h-2l1 4 2 2-2 9 2 1h-3l-1 2-3-4-7-1-3-3 1-3 2-1v-2h-10l1-4-7-3 2-4h2l2-10v-5h7l6-2zm-12 8 1 4h4l-1-4zm4 14-2 4v3l8 1-2-7zm8 10-7 3 1 3 5 1 5 2 1-1v-7z" fill="#E4BDA0"/>
<path transform="translate(454,66)" d="m0 0 3 1v10l6 2v2l-4 3-6 1 2 5 2 1v2l-6 4-3 4v7l-2 1-2-5-2-2v-4l-8-4v-7l-4-3 2-4 4-1h3l4-1h2l4-5 3-5zm-8 14v2l-4 2v3l6 2 4-3-2-4z" fill="#E4BDA0"/>
<path transform="translate(512,77)" d="m0 0 4 1 2 5 2 10 4 4 4 1 1 5-6 9-8-3-4-3 1-5h2l1-5-4-2 2-6-5-2-1-4z" fill="#E4C0A4"/>
<path transform="translate(899,95)" d="m0 0 4 1 4 4 1 3 7 3-2 3-1-2h-5l-1 4-1 2h-6l-6 1 4-3h2l-2-2h-3l-5-6v-2l-9 1-2-3 5-2 13 1h3z" fill="#E6C3A8"/>
<path transform="translate(1630,62)" d="m0 0 4 1v2l11-1 5-2h5l2 7 1 7-7-2-5-5h-5v2l5 3 2 4h-7l-1-1v-5h-9l-5-5 1-3z" fill="#E4BDA0"/>
<path transform="translate(1724,85)" d="m0 0 5 1 2 2h-2l-1 3h-2l2 6 2 2 6 1-1 6-8 3-2 5-5-3-2-3-6-1v-3l6-2 7 1v-2l-3-1-2-4 1-5z" fill="#E4BFA3"/>
<path transform="translate(1505,73)" d="m0 0 9 3v2l6-1 4 1 5 2 1 4-5 6-1 4h-6l-2-1 1-7 4-2 1-4-5 3-5-1-2-2-7 1-1-4z" fill="#E6C4AA"/>
<path transform="translate(468,83)" d="m0 0 4 1 6 3 3 4h7l1 1v5h-6l-1 2-2-1h-10l-1 2-7-5 1-4 4-3zm3 11v3l11-1-1-2z" fill="#E4BEA2"/>
<path transform="translate(843,72)" d="m0 0h6v3l-2 5-11 4-4 5-2 4-3-6h-2l1-6h9v-7l1-1z" fill="#E5C1A5"/>
<path transform="translate(1242,60)" d="m0 0 5 1-1 7v2l3 1h-2l1 4 2 2-2 9 2 1h-3l-1 2-3-4-7-1-3-3 1-3 2-1v-2h-10l1-4-2-2 9-3-2 7 8 1-1-3 4-4zm0 16-7 3 1 3 5 1 5 2 1-1v-7z" fill="#EFDDCE"/>
<path transform="translate(1179,53)" d="m0 0 4 2 2 2v3h8l-1 4h2v4l-5-1-5-2-4-1-3 6-3-1v-11z" fill="#E4BDA0"/>
<path transform="translate(1072,71)" d="m0 0 3 2 1 7 4 1 3-2 4 2v2l-5 2-3 5-1 1h-7l-1-11-2-5z" fill="#E4BDA0"/>
<path transform="translate(162,43)" d="m0 0 7 1 3 3 1 8 2 4-3 5h-2l-1 3-5 1v-6l3-5-2-6-4-7z" fill="#E6C5AB"/>
<path transform="translate(848,56)" d="m0 0h7l2 3 4-2 3 2v15l-4 1-3-2v-7l-6-3 1-2-5-3z" fill="#E6C4AA"/>
<path transform="translate(1468,69)" d="m0 0 4 1v7l3 1-3 1-1 2-1 15 2 2 4-1-1 3h-2l-1 4-1-2-3-1 1 5h-2v-5l-3-1 3-1v-2h-5l-3-3 1-4 1 3 5-1 2 1v-13l-3-2 1-4z" fill="#EFDDCE"/>
<path transform="translate(1215,53)" d="m0 0 5 2 1 1v5l-10 6h-6l-3-3 1-3 3-1 1-3 7-2z" fill="#E4BEA1"/>
<path transform="translate(1949,29)" d="m0 0 5 1v3l-3 1-1 5 5 1 1-4 2-2h3v2l3 1 1 4-2 2-9-1-3 3h-3l-1-6h-2v-5z" fill="#E5C2A8"/>
<path transform="translate(454,66)" d="m0 0 3 1v10l6 2v2l-4 3-6-1-6-5 1-4 4-6z" fill="#E4BEA1"/>
<path transform="translate(1175,38)" d="m0 0h5l5 2 7-2-1 8-1 5h-6l-1-6-6 2-3-4z" fill="#EBD3BF"/>
<path transform="translate(2009,4)" d="m0 0h3l4 8 3 2v3l-13 1-4-2v-7l3-2h3zm1 6-1 4 4-1-1-3z" fill="#E5C0A4"/>
<path transform="translate(601,100)" d="m0 0 4 3h6l2 1-1 5-5-1-1 5-5 1-2-3 4-3h-4-4l-1 4v-5-2l-1-2 6 1z" fill="#E6C5AB"/>
<path transform="translate(389,98)" d="m0 0h8l1 4 4-1-1 5-5 2-4 2-8 1-2 2v-6h3v-2l6 1 1-5z" fill="#EDD8C8"/>
<path transform="translate(1386,76)" d="m0 0 7 1-1 16-4 1-3-7-2-3 1-4z" fill="#E5C2A6"/>
<path transform="translate(1495,68)" d="m0 0 3 2-1 7-1 4v4l-3-1v-2l-7-2-1-4 3-3h5l1-4z" fill="#E6C6AC"/>
<path transform="translate(630,84)" d="m0 0 4 1 1 4-10 6-4 3-5-1 1-3 2-1 3-5 7-3z" fill="#E5C1A5"/>
<path transform="translate(1161,58)" d="m0 0h5l1 4-5 12-4 1v-8l-5 1 1-3 5-5z" fill="#E7C7AE"/>
<path transform="translate(1909,59)" d="m0 0 5 1v5l-3 1-1 8-5 1-1 2v-2l-3-1h2l1-7z" fill="#E5C1A6"/>
<path transform="translate(1524,78)" d="m0 0 5 2 1 4-5 6-1 4h-6l-1-5 5-4z" fill="#E3BD9F"/>
<path transform="translate(426,99)" d="m0 0h3l-1 3h-2l-1 2 3 2v3l-3 2-2 3-1-4-8-1-2 2-2-9 2 1v2l7-1h3z" fill="#EDD8C7"/>
<path transform="translate(734,61)" d="m0 0 5 1 3 3h7l1 1v5h-4l-1-3-5 2-2 2-5-1v-9z" fill="#E4C0A4"/>
<path transform="translate(804,68)" d="m0 0 5 2 4 4 6 1 1 4-7 1-5 1-2-6-4-4v-2z" fill="#E5C1A6"/>
<path transform="translate(1934,33)" d="m0 0 5 1 3 5-1 6-6 4-7 3-2-2 3-1 5-5 2-3v-4l-2-1z" fill="#E4C0A3"/>
<path transform="translate(137,69)" d="m0 0 6 1 3 2-1 4-5 1-2 3-5-1-1-4z" fill="#E6C3A8"/>
<path transform="translate(220,90)" d="m0 0 6 1 2 2v4h-3l-2 4-3-1 1-3h3v-3h-3l-1 3-6 1v-6z" fill="#E4BFA3"/>
<path transform="translate(446,76)" d="m0 0 7 6 3 2-3 1-1 4-2-2v-4l-4-3v2l-4 4-2 1-4-1-1-5-3-1 4-1h3l4-1h2z" fill="#EFDDCE"/>
<path transform="translate(162,83)" d="m0 0h4l3 6 2 5-2 2-2-2h-3l1-3-9-1 2-6 4 1z" fill="#ECD7C5"/>
<path transform="translate(1597,55)" d="m0 0 6 3v-2l4 1v2h5l1 4 3 1-4 2v-2l-4 1-2-5-3 2h-5l-2-2z" fill="#E6C5AB"/>
<path transform="translate(695,59)" d="m0 0h4l-2 4-2 2-7 2-1 1h-5v-6l3-2 10 1z" fill="#E4C0A4"/>
<path transform="translate(468,123)" d="m0 0h2l1 2h7l4-2 2 1 1 4-1 4-4-2h-5l-4 1-3-5z" fill="#EACFB9"/>
<path transform="translate(1764,40)" d="m0 0 5 1 1 3-5 5h-7l-2-2 1-4 6-2z" fill="#E4BEA2"/>
<path transform="translate(836,79)" d="m0 0 1 2 4-1 2 2-7 2-4 5-2 4-3-6h-2l1-6h9z" fill="#E9CDB6"/>
<path transform="translate(1081,65)" d="m0 0h6l1 3 3-3h4l-1 4-6 2-2-1-3 7-2-1z" fill="#E5C2A7"/>
<path transform="translate(246,31)" d="m0 0 9 3 4 4-3 2-4-1h-7l-1-6z" fill="#E4BEA1"/>
<path transform="translate(182,81)" d="m0 0h8l4 2 1 7-1 4-1 3h-3v-12l-9-1z" fill="#ECD5C2"/>
<path transform="translate(479,89)" d="m0 0 2 2h7l1 1v5h-6l-1 2-9-2v-1l8-1-10-1 3-2h5z" fill="#EFDDCE"/>
<path transform="translate(448,92)" d="m0 0 3 2 2 1-5 6v7l-2 1-2-5-2-2v-4l-2-2 4-1z" fill="#EAD0BB"/>
<path transform="translate(1468,69)" d="m0 0 4 1v7l3 1-3 1-1 2-1 11-2-1v-11l-3-2 1-4z" fill="#EFDDCE"/>
<path transform="translate(1573,49)" d="m0 0h12l1 5-6-1-5 3-5-1 2-5z" fill="#E5C1A5"/>
<path transform="translate(1803,36)" d="m0 0 5 1v2l-4 1v5h-4l-6-3v-2l5-3z" fill="#E4BEA0"/>
<path transform="translate(1153,43)" d="m0 0 4 1-2 5-1 4-2 2h-5l-1-4z" fill="#E7C8B0"/>
<path transform="translate(1190,38)" d="m0 0h2l-1 8-1 5h-6l1-8v-3z" fill="#E2BA9C"/>
<path transform="translate(426,129)" d="m0 0 5 1v4l6-2 1 5 2 2 2 6h-2l-1 2v-2l-3-1 1-2 1 1-1-3-2 1-2-4-7-6z" fill="#EFDDCE"/>
<path transform="translate(1784,33)" d="m0 0h3l-1 5h-2l1 4 2 1v5l-4-1-3-3 1-7h2z" fill="#E5C1A6"/>
<path transform="translate(1318,90)" d="m0 0 5 1 3-1 4 2-5 6-1 2-5-1 2-4-4-1z" fill="#EBD2BF"/>
<path transform="translate(1560,61)" d="m0 0 7 2 6 4v1h-7-4l-3 1-1-4z" fill="#E5C2A7"/>
<path transform="translate(1204,72)" d="m0 0 4 1-4 5-4 1-1 3h-1l-1-5-3-2v-2h7z" fill="#E8C9B2"/>
<path transform="translate(883,107)" d="m0 0h6l1 6h-4l3 9h-3l-1-9h-2v-2l-3-1z" fill="#E4BFA3"/>
<path transform="translate(131,57)" d="m0 0 4 1 2 3-2 3v4l-5-1-2-8z" fill="#EBD3BF"/>
<path transform="translate(1232,91)" d="m0 0h2l1 3 4 2-1-4 3 2-1 3h-3l-1 4-2-1 1 3h-2v-2l-4-1-1-3h4z" fill="#EFDDCE"/>
<path transform="translate(848,56)" d="m0 0h7l2 3h3l-2 5-1 2-6-3 1-2-5-3z" fill="#EFDDCE"/>
<path transform="translate(1367,116)" d="m0 0 1 3 2 1h-2l2 3 1-3 4-3 3 1-1 5-9 2-1-4h-9v-1l8-1z" fill="#EFDDCE"/>
<path transform="translate(1066,62)" d="m0 0h7l1 6-4 1-5-1-1-4z" fill="#E4BFA2"/>
<path transform="translate(2040,30)" d="m0 0h6v5l-6 2-5-1v-3l4-1z" fill="#E3BD9F"/>
<path transform="translate(1966,4)" d="m0 0h8l1 5h-4l-9 1 1-3h2z" fill="#E5C2A7"/>
<path transform="translate(1418,72)" d="m0 0 5 1v6l-2 2-4-1-1-1v-5z" fill="#E6C5AC"/>
<path transform="translate(760,49)" d="m0 0 4 1 1 6-1 2 3 1v3l-4-1v-3h-2l-2-5z" fill="#E6C4AA"/>
<path transform="translate(1177,27)" d="m0 0 8 4 1 4-4 2-4-1 1-6-3-1z" fill="#E9CDB6"/>
<path transform="translate(1959,35)" d="m0 0 5 2 1 4-2 2-6-1-1-4z" fill="#E4BDA0"/>
<path transform="translate(1639,70)" d="m0 0 6 3 3 3v2h-7l-1-1v-5h-9v-1z" fill="#E6C5AC"/>
<path transform="translate(1383,56)" d="m0 0h7v3l-2 3 3 1v2l-4-1-5-4z" fill="#EEDBCB"/>
<path transform="translate(900,126)" d="m0 0 4 2-3 1v4h2v3h-3v-2l-5-2-3-1 2-4 6 2zm-4 4 1 2 3-1z" fill="#EFDDCE"/>
<path transform="translate(419,123)" d="m0 0h2l2 4 3 2-3 1v5l-2-3v-2l-4 2-2 2v-5l3-1z" fill="#EEDCCC"/>
<path transform="translate(1270,91)" d="m0 0 2 3-2 2h-9l-2 4v-3l-4-1 1-2h8l3-2z" fill="#EFDDCE"/>
<path transform="translate(1205,47)" d="m0 0h2l1 7h7l-2 3h-6l-1 4-2-4-2-3 3-2z" fill="#EFDDCE"/>
<path transform="translate(883,97)" d="m0 0 6 1 4 2h-3l-1 3v-2l-9 1-2-3z" fill="#EACFBA"/>
<path transform="translate(1688,70)" d="m0 0h3l4 6 1 2-2 2-6-3-1-5z" fill="#E6C4AA"/>
<path transform="translate(100,65)" d="m0 0 4 1 1 5-1 1h-7l1-6z" fill="#E6C5AC"/>
<path transform="translate(730,52)" d="m0 0h5l1 1v6h-6l-1-5z" fill="#E4BEA1"/>
<path transform="translate(497,136)" d="m0 0 3 4v5l-3 3h-2l-1-4-6-1v-1l9-1z" fill="#EFDDCE"/>
<path transform="translate(771,62)" d="m0 0h5l6 4-1 3-3 1-2-3-5-2z" fill="#E5C2A6"/>
<path transform="translate(485,132)" d="m0 0h11v1l-11 3v2l3 2-7 1v-6h2z" fill="#EFDDCE"/>
<path transform="translate(1402,122)" d="m0 0 5 1 4 2h4l-1 3v-2l-6 1-4-2 5 5 1 2-4-2-4-3z" fill="#EEDCCC"/>
<path transform="translate(1425,101)" d="m0 0h2l1 7 6-2 1 3-5 2-2 3-2-4v-6l-3-2z" fill="#EDD7C6"/>
<path transform="translate(979,81)" d="m0 0 4 1-1 8-3 1-1-2v-7z" fill="#E7C6AD"/>
<path transform="translate(1335,47)" d="m0 0h4l-2 6-2 2h-4l1-4z" fill="#E8CBB4"/>
<path transform="translate(1183,49)" d="m0 0 1 2 4 1-4 2 3 3v2l3 1h-5l-3-5h-4v-3z" fill="#EFDDCE"/>
<path transform="translate(527,91)" d="m0 0h9v3l-1 1h-8z" fill="#E5C3A8"/>
<path transform="translate(1467,70)" d="m0 0h3l1 7-1 2-5-1 1-4z" fill="#E5C1A5"/>
<path transform="translate(511,56)" d="m0 0h7v3l-5 3-1 2-3-1 2-3z" fill="#ECD6C5"/>
<path transform="translate(898,52)" d="m0 0 5 1-1 3-4 3h-2l-1-5z" fill="#E7C7AE"/>
<path transform="translate(865,73)" d="m0 0 6 1 2 1v2l-4 2h-3l-2-5z" fill="#EAD0BB"/>
<path transform="translate(1536,68)" d="m0 0 4 1-1 4 1 2h-2l-1 3-1-3-2-1 1-5z" fill="#E8CBB3"/>
<path transform="translate(1519,77)" d="m0 0 5 2-2 7-4 3-2 4 1-7 4-2 1-4-4 1v-2l-2-1z" fill="#EDD9C9"/>
<path transform="translate(1416,117)" d="m0 0 4 2 5 1v2l-3 2-1 2-6-2v-6zm0 2v4h3v-4z" fill="#EFDDCE"/>
<path transform="translate(566,100)" d="m0 0 3 1 2 3v6l-2-4-4 1v-6z" fill="#EFDDCE"/>
<path transform="translate(47,74)" d="m0 0 4 1 2 3v3h-5l-1-1z" fill="#E4BFA3"/>
<path transform="translate(1404,71)" d="m0 0 4 1 1 5-4 1-3-4v-2z" fill="#E6C5AB"/>
<path transform="translate(1324,69)" d="m0 0h5l4 5v5l-2 1-1-8h-7l-1-2z" fill="#EFDDCE"/>
<path transform="translate(1457,82)" d="m0 0 4 1 1 7-1-3h-10v-2l5-1z" fill="#EFDDCE"/>
<path transform="translate(994,75)" d="m0 0h5l3 3v3l-3-1v-2l-9 2 1-2h2z" fill="#E8CBB4"/>
<path transform="translate(1031,71)" d="m0 0 5 1-3 6-4-1 1-5z" fill="#E6C4AA"/>
<path transform="translate(1174,61)" d="m0 0 6 2-3 7-3-1z" fill="#EDD9C8"/>
<path transform="translate(788,62)" d="m0 0h6l-3 6h-4v-5z" fill="#E4C0A3"/>
<path transform="translate(385,105)" d="m0 0 4 1v4l-5 1-2 2v-6h3z" fill="#E9CEB9"/>
<path transform="translate(448,92)" d="m0 0 3 2 2 1-5 6-1-2 1-2h-4l2-4z" fill="#EFDDCE"/>
<path transform="translate(478,79)" d="m0 0h6l1 4-5 1-2-1z" fill="#E7C7AE"/>
<path transform="translate(1757,78)" d="m0 0h3v6l-4 1-2-1v-3h2z" fill="#E4BFA2"/>
<path transform="translate(1758,55)" d="m0 0 4 2v2l3 2-3 1-5-2-1-4z" fill="#E9CCB5"/>
<path transform="translate(440,111)" d="m0 0 2 4 1 9-3 2v-6l-3-1 2-3z" fill="#EEDBCC"/>
<path transform="translate(505,113)" d="m0 0h3l-1 6-1 2-4-1-1-5zm-1 2-1 4 3-1v-3z" fill="#EFDDCE"/>
<path transform="translate(655,84)" d="m0 0 5 1-2 4-5 1z" fill="#E5C3A8"/>
<path transform="translate(1887,75)" d="m0 0h5l1 1v5h-4l-2-3z" fill="#E4BFA2"/>
<path transform="translate(1226,49)" d="m0 0 7 1v2h-3l-1 4-2 2z" fill="#EFDDCE"/>
<path transform="translate(1214,32)" d="m0 0 4 1-1 4-5 1-1-3z" fill="#E8C9B1"/>
<path transform="translate(2034,10)" d="m0 0 2 1v5l-1 1h-5l1-4z" fill="#E4BFA2"/>
<path transform="translate(434,80)" d="m0 0 2 1v8l-6-5 1-3z" fill="#E7C7AE"/>
<path transform="translate(1047,66)" d="m0 0 6 2v4l-5-1z" fill="#E6C6AC"/>
<path transform="translate(463,91)" d="m0 0 2 1-1 3h5l2-1v3l2 1h-3l-1 2-7-5z" fill="#EFDDCE"/>
<path transform="translate(394,86)" d="m0 0 5 1v3l-7 1 1-4z" fill="#E5C2A7"/>
<path transform="translate(1194,73)" d="m0 0 7 1-2 4 3 1h-2l-1 3h-1l-1-5-3-2z" fill="#EFDDCE"/>
<path transform="translate(1981,41)" d="m0 0 2 2-5 4-3-1 1-4z" fill="#E8C9B1"/>
<path transform="translate(1190,38)" d="m0 0h2l-1 8-1 4-3-5v-2l3-3-2-1z" fill="#EFDDCE"/>
<path transform="translate(180,118)" d="m0 0 3 1-3 7-4-1 1-4zm-2 5 1 2z" fill="#EFDDCE"/>
<path transform="translate(484,91)" d="m0 0 5 1v4h-5l-1-4z" fill="#E4C0A4"/>
<path transform="translate(1313,77)" d="m0 0h3l1 3-1 5h-3l-1-7z" fill="#E9CCB6"/>
<path transform="translate(105,75)" d="m0 0 3 1v5l-3 1-1 4h-2l2-8z" fill="#EEDBCC"/>
<path transform="translate(695,59)" d="m0 0h4l-2 4-2 2h-6l4-4h2z" fill="#E6C4AA"/>
<path transform="translate(1965,21)" d="m0 0 4 1 2 1v4l-5-1z" fill="#E5C2A8"/>
<path transform="translate(1145,117)" d="m0 0h1l2 8-4 1-1 2-1-4z" fill="#EFDDCE"/>
<path transform="translate(889,109)" d="m0 0 1 4h-4l3 9h-3l-1-9h-2v-2l6 1z" fill="#EFDDCE"/>
<path transform="translate(536,104)" d="m0 0h5l-4 1 1 7h-3v-4l-2-1h2z" fill="#EFDDCE"/>
<path transform="translate(1512,87)" d="m0 0 1 3-2 4v-4h-4v3h-3v-5z" fill="#EFDDCE"/>
<path transform="translate(1654,81)" d="m0 0h5l1 3-4 2h-10v-1l8-1z" fill="#EFDDCE"/>
<path transform="translate(1203,48)" d="m0 0h3l-1 5-4 1v-4z" fill="#E3BC9E"/>
<path transform="translate(1477,64)" d="m0 0h4l-1 5h-4z" fill="#E6C5AC"/>
<path transform="translate(1990,33)" d="m0 0h5v5h-3l-3-4z" fill="#E5C2A7"/>
<path transform="translate(555,94)" d="m0 0 5 1-1 4h-4l-1-3z" fill="#E7C6AD"/>
<path transform="translate(890,82)" d="m0 0h4l-1 7h-3l-1-4z" fill="#E9CCB5"/>
<path transform="translate(1432,76)" d="m0 0 5 2-2 4-3-1z" fill="#EAD1BC"/>
<path transform="translate(1627,46)" d="m0 0h3l1 6h-4z" fill="#E5C2A6"/>
<path transform="translate(253,23)" d="m0 0h5v4h-5z" fill="#E6C3A9"/>
<path transform="translate(211,72)" d="m0 0h3v6l-4-1z" fill="#E6C6AC"/>
<path transform="translate(55,71)" d="m0 0 5 1-1 3h-5z" fill="#E3BD9F"/>
<path transform="translate(111,50)" d="m0 0 3 1 1 4h-4l-1-4z" fill="#EAD0BC"/>
<path transform="translate(1e3 71)" d="m0 0 4 1v3h-5l-1-3z" fill="#E7C8B0"/>
<path transform="translate(722,62)" d="m0 0h4l-1 5-4-2z" fill="#E6C4AA"/>
<path transform="translate(348,51)" d="m0 0 5 1v4l-4-1z" fill="#E6C4AA"/>
<path transform="translate(836,60)" d="m0 0 5 3-1 2-5-1z" fill="#EAD1BC"/>
<path transform="translate(162,72)" d="m0 0h2l-2 5-3 1 1-5z" fill="#EFDDCE"/>
<path transform="translate(1037,66)" d="m0 0h3l-1 5h-3z" fill="#E9CEB9"/>
<path transform="translate(1661,58)" d="m0 0 3 1v3h-5v-3z" fill="#E5C2A7"/>
<path transform="translate(1965,48)" d="m0 0 4 1v3h-5z" fill="#E4BEA1"/>
<path transform="translate(119,65)" d="m0 0 3 1-1 4h-3z" fill="#E9CDB7"/>
<path transform="translate(708,65)" d="m0 0h4v3l-5 1z" fill="#E8C9B1"/>
<path transform="translate(704,71)" d="m0 0h3v3l-5 1z" fill="#E9CEB8"/>
<path transform="translate(1401,58)" d="m0 0 3 1v3l-5-1v-2z" fill="#EEDACA"/>
<path transform="translate(1156,91)" d="m0 0h5l-1 3h-4z" fill="#E5C2A7"/>
<path transform="translate(417,66)" d="m0 0 2 1-2 4-3-1z" fill="#EFDDCE"/>
<path transform="translate(221,81)" d="m0 0 4 1-1 3-3-1z" fill="#E6C3A8"/>
<path transform="translate(423,80)" d="m0 0 3 1-1 3h-3z" fill="#ECD4C1"/>
<path transform="translate(148,77)" d="m0 0 3 1-1 3h-3z" fill="#EFDDCE"/>
<path transform="translate(758,58)" d="m0 0 3 1-1 3-4-1z" fill="#E8C9B0"/>
<path transform="translate(706,55)" d="m0 0 3 1-1 3h-3z" fill="#E5C0A4"/>
<path transform="translate(368,74)" d="m0 0 3 1v3l-4-1z" fill="#E6C4AA"/>
<path transform="translate(1879,62)" d="m0 0h4v3h-4z" fill="#E6C4AA"/>
<path transform="translate(1164,46)" d="m0 0 4 2v2l-4-1z" fill="#EFDDCE"/>
<path transform="translate(2030,23)" d="m0 0 3 1-1 3-3-1z" fill="#E7C7AE"/>
<path transform="translate(980,97)" d="m0 0h2v4h-3z" fill="#EACFBA"/>
<path transform="translate(839,94)" d="m0 0 4 1-1 2-4-1z" fill="#E6C5AB"/>
<path transform="translate(794,75)" d="m0 0h4v3l-4-1z" fill="#E6C5AB"/>
<path transform="translate(38,58)" d="m0 0 2 1v3l-4-1z" fill="#E6C5AB"/>
<path transform="translate(204,94)" d="m0 0 4 1-1 2h-3z" fill="#E3BB9D"/>
<path transform="translate(1168,97)" d="m0 0 3 1v2h-4z" fill="#EAD0BC"/>
<path transform="translate(171,79)" d="m0 0 1 4-3-1v-2z" fill="#EFDDCE"/>
<path transform="translate(420,63)" d="m0 0h4v2h-5z" fill="#EFDDCE"/>
<path transform="translate(744,52)" d="m0 0 3 1-1 2h-3z" fill="#E9CCB6"/>
<path transform="translate(1,50)" d="m0 0 2 2-1 4h-1z" fill="#E7C8B0"/>
<path transform="translate(215,48)" d="m0 0h2l-1 4-2-1z" fill="#EAD0BC"/>
<path transform="translate(2013,21)" d="m0 0h5v2l-5-1z" fill="#ECD4C2"/>
<path transform="translate(501,71)" d="m0 0h2v2l-4 1v-2z" fill="#EFDDCE"/>
<path transform="translate(1615,56)" d="m0 0h4v2h-4z" fill="#EFDDCE"/>
<path transform="translate(830,54)" d="m0 0 3 1v2h-3z" fill="#EFDDCE"/>
<path transform="translate(1167,34)" d="m0 0 5 2-3 1-2-1z" fill="#EFDDCE"/>
<path transform="translate(1417,84)" d="m0 0 2 1v2h-3z" fill="#EFDDCE"/>
<path transform="translate(526,77)" d="m0 0 2 3h-3z" fill="#EFDDCE"/>
<path transform="translate(198,75)" d="m0 0h2v3l-3-1z" fill="#EBD2BE"/>
<path transform="translate(154,72)" d="m0 0 2 1v2h-3z" fill="#EFDDCE"/>
<path transform="translate(1565,56)" d="m0 0h3l-1 3-2-1z" fill="#E9CDB6"/>
<path transform="translate(1951,46)" d="m0 0h3l-1 3-2-1z" fill="#EBD2BE"/>
<path transform="translate(2020,7)" d="m0 0h2v3l-3-1z" fill="#E7C7AF"/>
<path transform="translate(755,68)" d="m0 0 2 2-3 1z" fill="#E6C4AA"/>
<path transform="translate(1222,37)" d="m0 0h3v2h-3z" fill="#EFDDCE"/>
<path transform="translate(876,59)" d="m0 0h3v2l-3-1z" fill="#EFDDCE"/>
<path transform="translate(1307,81)" d="m0 0 2 2-3-1z" fill="#EFDDCE"/>
<path transform="translate(1456,75)" d="m0 0h2v2h-2z" fill="#EFDDCE"/>
<path transform="translate(824,62)" d="m0 0 3 2h-3z" fill="#EFDDCE"/>
<path transform="translate(345,46)" d="m0 0 2 2-3-1z" fill="#EFDDCE"/>
<path transform="translate(263,21)" d="m0 0h2v2h-2z" fill="#EFDDCE"/>
<path transform="translate(383,101)" d="m0 0 1 2-2-1z" fill="#EFDDCE"/>
<path transform="translate(641,82)" d="m0 0h2l-1 2z" fill="#EFDDCE"/>
<path transform="translate(1350,79)" d="m0 0 3 1z" fill="#EFDDCE"/>
<path transform="translate(1287,75)" d="m0 0 2 2h-2z" fill="#EFDDCE"/>
<path transform="translate(219,59)" d="m0 0 1 2-2-1z" fill="#EFDDCE"/>
<path transform="translate(1634,51)" d="m0 0h2l-1 2z" fill="#EFDDCE"/>
<path transform="translate(198,101)" d="m0 0" fill="#EFDDCE"/>
<path transform="translate(171,72)" d="m0 0" fill="#EFDDCE"/>
<path transform="translate(117,72)" d="m0 0" fill="#EFDDCE"/>
<path transform="translate(1430,64)" d="m0 0" fill="#EFDDCE"/>
<path transform="translate(529,58)" d="m0 0" fill="#EFDDCE"/>
<path transform="translate(1194,44)" d="m0 0" fill="#EFDDCE"/>
<path transform="translate(1826,40)" d="m0 0" fill="#EFDDCE"/>
<path transform="translate(170,41)" d="m0 0 2 1z" fill="#EFDDCE"/>
<path transform="translate(621,111)" d="m0 0" fill="#EFDDCE"/>
<path transform="translate(147,95)" d="m0 0" fill="#EFDDCE"/>
<path transform="translate(467,82)" d="m0 0" fill="#EFDDCE"/>
<path transform="translate(530,73)" d="m0 0" fill="#EFDDCE"/>
<path transform="translate(440,70)" d="m0 0" fill="#EFDDCE"/>
<path transform="translate(696,66)" d="m0 0" fill="#EFDDCE"/>
<path transform="translate(1932,57)" d="m0 0" fill="#EFDDCE"/>
</svg>
